<?xml version="1.0" standalone="no"?>
<!DOCTYPE svg PUBLIC "-//W3C//DTD SVG 20010904//EN"
 "http://www.w3.org/TR/2001/REC-SVG-20010904/DTD/svg10.dtd">
<svg version="1.0" xmlns="http://www.w3.org/2000/svg"
 width="400.000000pt" height="400.000000pt" viewBox="0 0 400.000000 400.000000"
 preserveAspectRatio="xMidYMid meet">
<metadata>
Created by potrace 1.11, written by Peter Selinger 2001-2013
</metadata>
<g transform="translate(0.000000,400.000000) scale(0.100000,-0.100000)"
fill="#000000" stroke="none">
<path d="M1421 3888 c-20 -10 -22 -17 -18 -51 7 -52 32 -76 162 -157 236 -146
436 -318 538 -461 54 -77 125 -222 158 -323 103 -323 13 -684 -230 -920 -57
-56 -147 -125 -163 -126 -5 0 -8 164 -8 364 0 349 -1 364 -20 389 -39 49 -131
59 -211 23 -70 -31 -84 -54 -93 -148 -26 -286 -156 -527 -370 -685 -32 -24
-64 -43 -71 -43 -11 0 -13 72 -13 363 0 386 0 392 -48 418 -29 15 -101 18
-145 5 -46 -14 -105 -55 -117 -81 -4 -11 -8 -207 -7 -435 l0 -415 24 -34 c14
-19 46 -44 76 -57 155 -71 405 14 609 207 57 54 66 58 66 29 0 -37 40 -99 80
-126 80 -53 240 -40 391 32 41 20 76 39 79 42 3 4 25 20 50 36 67 44 209 190
274 284 32 45 61 82 64 83 4 0 26 2 50 5 23 3 42 4 42 2 0 -1 -7 -24 -15 -51
-8 -28 -13 -77 -11 -122 2 -65 7 -82 32 -117 53 -76 152 -108 276 -89 35 5 88
12 118 16 30 3 66 8 80 10 14 3 43 7 65 10 22 2 56 6 75 9 60 9 101 14 225 31
66 9 135 18 152 20 18 3 57 8 85 11 29 4 56 8 60 10 35 21 -21 -258 -85 -421
-17 -44 -32 -82 -32 -85 -5 -32 -158 -294 -208 -356 -273 -336 -557 -526 -957
-638 -63 -17 -104 -24 -255 -44 -71 -9 -295 -8 -375 2 -593 74 -1093 428
-1359 963 -49 99 -111 266 -130 353 -19 85 -22 105 -35 210 -34 280 1 546 111
845 18 50 133 274 152 297 6 7 38 51 72 98 149 207 456 455 669 540 63 25 72
34 55 56 -9 10 -41 53 -72 94 -31 41 -57 76 -58 78 -5 6 -212 -107 -295 -163
-232 -154 -413 -336 -562 -565 -129 -197 -233 -445 -276 -656 -11 -54 -24
-115 -28 -134 -11 -56 -14 -500 -3 -560 46 -259 88 -395 182 -590 149 -311
385 -584 676 -779 210 -142 450 -244 686 -292 152 -31 183 -34 415 -34 226 0
277 4 400 30 41 9 86 19 98 21 85 17 312 107 432 171 451 243 785 641 945
1126 24 75 47 150 51 169 33 173 42 250 43 381 l2 148 -43 -5 c-24 -4 -92 -13
-153 -21 -60 -9 -128 -18 -150 -21 -22 -2 -51 -7 -65 -9 -14 -2 -47 -7 -75
-10 -27 -3 -61 -8 -75 -10 -14 -2 -47 -6 -75 -10 -27 -3 -61 -8 -75 -10 -14
-2 -46 -7 -72 -10 -26 -3 -80 -10 -120 -16 -64 -9 -99 -13 -183 -22 -16 -2
-20 4 -21 30 -1 31 36 137 53 154 8 8 39 15 113 23 25 3 79 10 120 16 41 5 92
12 113 15 130 17 141 19 212 30 22 3 59 8 82 10 53 5 87 27 103 66 41 97 -23
179 -127 165 -21 -3 -109 -15 -196 -27 -87 -11 -160 -19 -163 -17 -4 5 77 62
156 108 55 32 222 100 309 125 109 32 161 101 128 171 -37 76 -117 81 -297 19
-272 -94 -534 -259 -692 -434 -41 -47 -48 -51 -112 -61 -38 -6 -70 -9 -73 -7
-2 3 4 42 13 88 18 87 24 249 11 331 -67 433 -438 880 -898 1083 -73 32 -96
38 -179 41 -62 3 -103 0 -119 -8z"/>
<path d="M2923 3371 c-89 -23 -158 -103 -169 -195 -9 -75 9 -136 57 -190 141
-160 407 -59 410 156 2 119 -94 224 -212 233 -30 2 -69 0 -86 -4z"/>
<path d="M3340 1619 c-69 -10 -145 -21 -170 -24 -25 -4 -52 -8 -60 -10 -8 -3
-38 -7 -66 -10 -28 -3 -60 -7 -71 -9 -11 -3 -44 -7 -74 -11 -30 -3 -61 -8 -69
-10 -8 -2 -39 -7 -69 -10 -30 -4 -63 -9 -75 -11 -11 -2 -38 -6 -61 -9 -48 -6
-114 -16 -135 -20 -8 -2 -44 -6 -80 -10 -36 -4 -67 -8 -70 -10 -3 -1 -32 -6
-65 -10 -32 -3 -62 -8 -65 -10 -3 -2 -34 -6 -70 -10 -36 -4 -67 -8 -70 -10 -3
-2 -34 -6 -70 -10 -35 -3 -67 -8 -70 -10 -3 -1 -34 -6 -70 -10 -36 -4 -67 -8
-70 -10 -3 -2 -33 -7 -65 -10 -33 -4 -67 -9 -77 -10 -9 -2 -38 -6 -65 -10 -26
-4 -59 -9 -73 -11 -25 -3 -72 -10 -145 -20 -46 -6 -66 -9 -155 -23 -36 -6 -87
-13 -115 -16 -27 -3 -61 -8 -75 -10 -14 -3 -43 -7 -65 -10 -93 -13 -97 -15
-91 -43 3 -15 8 -46 11 -69 3 -23 8 -57 10 -75 3 -18 8 -55 11 -83 3 -27 9
-53 13 -58 4 -4 29 -1 57 7 27 8 110 30 184 50 74 20 297 79 495 132 198 53
367 97 375 99 8 2 312 83 675 180 363 98 693 185 733 195 40 9 76 20 79 24 10
9 -29 6 -167 -15z"/>
</g>
</svg>
